<mxfile host="app.diagrams.net" modified="2022-06-23T12:38:24.654Z" agent="5.0 (Windows NT 10.0; Win64; x64) AppleWebKit/537.36 (KHTML, like Gecko) Chrome/102.0.0.0 Safari/537.36" etag="ruiW9jss_6YPqoU0alnH" version="18.0.7" type="github">
  <diagram id="LoCXax2k92D_B-una686" name="Page-1">
    <mxGraphModel dx="1724" dy="964" grid="0" gridSize="10" guides="1" tooltips="1" connect="1" arrows="1" fold="1" page="0" pageScale="1" pageWidth="850" pageHeight="1100" math="0" shadow="0">
      <root>
        <mxCell id="0" />
        <mxCell id="1" parent="0" />
        <mxCell id="0s58Gw0j7K0jW5i8tfYg-1" value="Alumni" style="swimlane;" vertex="1" parent="1">
          <mxGeometry x="120" y="40" width="410" height="990" as="geometry" />
        </mxCell>
        <mxCell id="0s58Gw0j7K0jW5i8tfYg-15" value="" style="edgeStyle=orthogonalEdgeStyle;rounded=0;orthogonalLoop=1;jettySize=auto;html=1;fontSize=20;" edge="1" parent="0s58Gw0j7K0jW5i8tfYg-1" source="0s58Gw0j7K0jW5i8tfYg-3" target="0s58Gw0j7K0jW5i8tfYg-4">
          <mxGeometry relative="1" as="geometry" />
        </mxCell>
        <mxCell id="0s58Gw0j7K0jW5i8tfYg-3" value="" style="ellipse;whiteSpace=wrap;html=1;fillColor=#000000;" vertex="1" parent="0s58Gw0j7K0jW5i8tfYg-1">
          <mxGeometry x="177.5" y="40" width="55" height="50" as="geometry" />
        </mxCell>
        <mxCell id="0s58Gw0j7K0jW5i8tfYg-16" value="" style="edgeStyle=orthogonalEdgeStyle;rounded=0;orthogonalLoop=1;jettySize=auto;html=1;fontSize=20;" edge="1" parent="0s58Gw0j7K0jW5i8tfYg-1" source="0s58Gw0j7K0jW5i8tfYg-4" target="0s58Gw0j7K0jW5i8tfYg-5">
          <mxGeometry relative="1" as="geometry" />
        </mxCell>
        <mxCell id="0s58Gw0j7K0jW5i8tfYg-4" value="&lt;font style=&quot;font-size: 20px;&quot;&gt;form pengisian data diri&lt;/font&gt;" style="rounded=1;whiteSpace=wrap;html=1;fillColor=#FFFFFF;" vertex="1" parent="0s58Gw0j7K0jW5i8tfYg-1">
          <mxGeometry x="82.5" y="160" width="245" height="80" as="geometry" />
        </mxCell>
        <mxCell id="0s58Gw0j7K0jW5i8tfYg-17" value="" style="edgeStyle=orthogonalEdgeStyle;rounded=0;orthogonalLoop=1;jettySize=auto;html=1;fontSize=20;" edge="1" parent="0s58Gw0j7K0jW5i8tfYg-1" source="0s58Gw0j7K0jW5i8tfYg-5" target="0s58Gw0j7K0jW5i8tfYg-6">
          <mxGeometry relative="1" as="geometry" />
        </mxCell>
        <mxCell id="0s58Gw0j7K0jW5i8tfYg-5" value="&lt;font style=&quot;font-size: 20px;&quot;&gt;mengisi form tersebut&lt;/font&gt;" style="rounded=1;whiteSpace=wrap;html=1;fillColor=#FFFFFF;" vertex="1" parent="0s58Gw0j7K0jW5i8tfYg-1">
          <mxGeometry x="82.5" y="320" width="245" height="80" as="geometry" />
        </mxCell>
        <mxCell id="0s58Gw0j7K0jW5i8tfYg-21" value="" style="edgeStyle=orthogonalEdgeStyle;rounded=0;orthogonalLoop=1;jettySize=auto;html=1;fontSize=20;" edge="1" parent="0s58Gw0j7K0jW5i8tfYg-1" source="0s58Gw0j7K0jW5i8tfYg-6">
          <mxGeometry relative="1" as="geometry">
            <mxPoint x="489.9999999999998" y="520" as="targetPoint" />
          </mxGeometry>
        </mxCell>
        <mxCell id="0s58Gw0j7K0jW5i8tfYg-6" value="&lt;font style=&quot;font-size: 20px;&quot;&gt;data diri alumni&lt;/font&gt;" style="rounded=1;whiteSpace=wrap;html=1;fillColor=#FFFFFF;" vertex="1" parent="0s58Gw0j7K0jW5i8tfYg-1">
          <mxGeometry x="82.5" y="480" width="245" height="80" as="geometry" />
        </mxCell>
        <mxCell id="0s58Gw0j7K0jW5i8tfYg-7" value="Tata Usaha" style="swimlane;startSize=23;" vertex="1" parent="1">
          <mxGeometry x="530" y="40" width="410" height="990" as="geometry" />
        </mxCell>
        <mxCell id="0s58Gw0j7K0jW5i8tfYg-19" value="" style="edgeStyle=orthogonalEdgeStyle;rounded=0;orthogonalLoop=1;jettySize=auto;html=1;fontSize=20;" edge="1" parent="0s58Gw0j7K0jW5i8tfYg-7" source="0s58Gw0j7K0jW5i8tfYg-9">
          <mxGeometry relative="1" as="geometry">
            <mxPoint x="-80.00000000000023" y="200" as="targetPoint" />
          </mxGeometry>
        </mxCell>
        <mxCell id="0s58Gw0j7K0jW5i8tfYg-9" value="&lt;font style=&quot;font-size: 20px;&quot;&gt;form pengisian data diri&lt;/font&gt;" style="rounded=1;whiteSpace=wrap;html=1;fillColor=#FFFFFF;" vertex="1" parent="0s58Gw0j7K0jW5i8tfYg-7">
          <mxGeometry x="82.5" y="160" width="245" height="80" as="geometry" />
        </mxCell>
        <mxCell id="0s58Gw0j7K0jW5i8tfYg-22" value="" style="edgeStyle=orthogonalEdgeStyle;rounded=0;orthogonalLoop=1;jettySize=auto;html=1;fontSize=20;" edge="1" parent="0s58Gw0j7K0jW5i8tfYg-7" source="0s58Gw0j7K0jW5i8tfYg-11" target="0s58Gw0j7K0jW5i8tfYg-12">
          <mxGeometry relative="1" as="geometry" />
        </mxCell>
        <mxCell id="0s58Gw0j7K0jW5i8tfYg-11" value="&lt;font style=&quot;font-size: 20px;&quot;&gt;data diri alumni&lt;/font&gt;" style="rounded=1;whiteSpace=wrap;html=1;fillColor=#FFFFFF;" vertex="1" parent="0s58Gw0j7K0jW5i8tfYg-7">
          <mxGeometry x="82.5" y="480" width="245" height="80" as="geometry" />
        </mxCell>
        <mxCell id="0s58Gw0j7K0jW5i8tfYg-23" value="" style="edgeStyle=orthogonalEdgeStyle;rounded=0;orthogonalLoop=1;jettySize=auto;html=1;fontSize=20;" edge="1" parent="0s58Gw0j7K0jW5i8tfYg-7" source="0s58Gw0j7K0jW5i8tfYg-12" target="0s58Gw0j7K0jW5i8tfYg-13">
          <mxGeometry relative="1" as="geometry" />
        </mxCell>
        <mxCell id="0s58Gw0j7K0jW5i8tfYg-12" value="&lt;span style=&quot;font-size: 20px;&quot;&gt;merekap data alumni&lt;/span&gt;" style="rounded=1;whiteSpace=wrap;html=1;fillColor=#FFFFFF;" vertex="1" parent="0s58Gw0j7K0jW5i8tfYg-7">
          <mxGeometry x="82.5" y="640" width="245" height="80" as="geometry" />
        </mxCell>
        <mxCell id="0s58Gw0j7K0jW5i8tfYg-24" value="" style="edgeStyle=orthogonalEdgeStyle;rounded=0;orthogonalLoop=1;jettySize=auto;html=1;fontSize=20;" edge="1" parent="0s58Gw0j7K0jW5i8tfYg-7" source="0s58Gw0j7K0jW5i8tfYg-13" target="0s58Gw0j7K0jW5i8tfYg-14">
          <mxGeometry relative="1" as="geometry" />
        </mxCell>
        <mxCell id="0s58Gw0j7K0jW5i8tfYg-13" value="&lt;font style=&quot;font-size: 20px;&quot;&gt;rekap data alumni&lt;/font&gt;" style="rounded=1;whiteSpace=wrap;html=1;fillColor=#FFFFFF;" vertex="1" parent="0s58Gw0j7K0jW5i8tfYg-7">
          <mxGeometry x="82.5" y="800" width="245" height="80" as="geometry" />
        </mxCell>
        <mxCell id="0s58Gw0j7K0jW5i8tfYg-14" value="" style="ellipse;html=1;shape=endState;fillColor=#000000;strokeColor=#000000;fontSize=20;" vertex="1" parent="0s58Gw0j7K0jW5i8tfYg-7">
          <mxGeometry x="180" y="930" width="50" height="50" as="geometry" />
        </mxCell>
      </root>
    </mxGraphModel>
  </diagram>
</mxfile>
